<svg xmlns="http://www.w3.org/2000/svg" viewBox="0 0 200 200">
  <!-- Logotype THRIVE — silhouette d'animal en mouvement ascendant avec flèche
       (recréation vectorielle ; remplacer par logo.png original si disponible) -->
  <path fill="#F7F5F2" d="
    M158 22
    L186 36
    L170 62
    L163 50
    C150 70 138 84 124 96
    C118 76 106 68 92 70
    C76 72 62 80 48 84
    L40 88
    L52 118
    C56 110 62 104 70 103
    C78 102 83 108 83 116
    C83 126 76 134 66 136
    L82 168
    L70 168
    C60 150 52 136 47 124
    C43 132 40 144 40 156
    C40 162 41 166 43 170
    L26 170
    C30 164 32 156 32 146
    C32 130 36 114 42 100
    L34 92
    C50 80 70 64 92 58
    C112 52 130 52 142 42
    L150 34
    L143 26
    Z" />
</svg>
